<svg width="30" height="30" viewBox="0 0 30 30" fill="none" xmlns="http://www.w3.org/2000/svg">
<rect width="30" height="30" rx="15" fill="var(--icon-bg)"/>
<path d="M18.5 6.5C19.0523 6.5 19.5 6.94772 19.5 7.5V9.5H21C21.8284 9.5 22.5 10.1716 22.5 11V20C22.5 20.8284 21.8284 21.5 21 21.5H9C8.17157 21.5 7.5 20.8284 7.5 20V11C7.5 10.1716 8.17157 9.5 9 9.5H10.5V7.5C10.5 6.94772 10.9477 6.5 11.5 6.5C12.0523 6.5 12.5 6.94772 12.5 7.5V9.5H17.5V7.5C17.5 6.94772 17.9477 6.5 18.5 6.5ZM18.0898 13.0156C17.402 12.3281 16.2972 12.3281 15.6094 13.0156L15 13.625L14.3906 13.0156C13.7028 12.3281 12.598 12.3281 11.9102 13.0156C11.2222 13.7036 11.2222 14.8091 11.9102 15.4971L12.5186 16.1064L14.8535 18.4404C14.9325 18.5194 15.0793 18.5194 15.1582 18.4404L17.4814 16.1064L18.0898 15.4971C18.7778 14.8091 18.7778 13.7036 18.0898 13.0156Z" fill="var(--icon-fg)"/>
</svg>
