<svg width="30" height="30" viewBox="0 0 30 30" fill="none" xmlns="http://www.w3.org/2000/svg">
<rect width="30" height="30" rx="15" fill="var(--icon-bg)"/>
<path d="M15 7.5C19.1421 7.5 22.5 10.8579 22.5 15C22.5 19.1421 19.1421 22.5 15 22.5C10.8579 22.5 7.5 19.1421 7.5 15C7.5 10.8579 10.8579 7.5 15 7.5ZM15 17.5C14.4477 17.5 14 17.9477 14 18.5C14 19.0523 14.4477 19.5 15 19.5C15.5523 19.5 16 19.0523 16 18.5C16 17.9477 15.5523 17.5 15 17.5ZM15 10.5C14.4477 10.5 14 10.9477 14 11.5V15.5C14 16.0523 14.4477 16.5 15 16.5C15.5523 16.5 16 16.0523 16 15.5V11.5C16 10.9477 15.5523 10.5 15 10.5Z" fill="var(--icon-fg)"/>
</svg>
