<svg width="40" height="40" viewBox="0 0 40 40" fill="none" xmlns="http://www.w3.org/2000/svg"><rect width="40" height="40" rx="20" fill="var(--icon-bg)"/><path d="M21.412 12.8789C21.4356 12.7907 21.4763 12.7081 21.5318 12.6357C21.5873 12.5633 21.6566 12.5026 21.7356 12.4569C21.8146 12.4113 21.9018 12.3817 21.9923 12.3698C22.0827 12.3579 22.1746 12.3639 22.2627 12.3875C23.5501 12.7234 24.7247 13.3964 25.6655 14.3372C26.6063 15.278 27.2793 16.4526 27.6152 17.74C27.6388 17.8281 27.6448 17.92 27.6329 18.0104C27.621 18.1009 27.5914 18.1881 27.5458 18.2671C27.5001 18.3461 27.4394 18.4154 27.367 18.4709C27.2946 18.5264 27.212 18.5671 27.1238 18.5907C27.0652 18.6061 27.0048 18.6139 26.9442 18.6141C26.7912 18.6141 26.6426 18.5637 26.5213 18.4706C26.3999 18.3776 26.3127 18.2471 26.2731 18.0993C25.9993 17.0482 25.4501 16.0892 24.6822 15.3211C23.9142 14.553 22.9553 14.0036 21.9042 13.7296C21.816 13.7061 21.7333 13.6654 21.6608 13.61C21.5883 13.5545 21.5275 13.4853 21.4818 13.4062C21.436 13.3272 21.4064 13.24 21.3944 13.1495C21.3824 13.059 21.3884 12.967 21.412 12.8789ZM21.2098 16.5073C22.4068 16.8268 23.1759 17.5967 23.4954 18.7938C23.5349 18.9415 23.6221 19.072 23.7435 19.1651C23.8648 19.2582 24.0135 19.3086 24.1664 19.3085C24.227 19.3084 24.2874 19.3005 24.3461 19.2851C24.4342 19.2615 24.5168 19.2208 24.5892 19.1653C24.6616 19.1098 24.7224 19.0406 24.768 18.9616C24.8136 18.8826 24.8432 18.7953 24.8551 18.7049C24.867 18.6144 24.861 18.5225 24.8374 18.4344C24.3929 16.7712 23.2315 15.6098 21.5683 15.1653C21.3903 15.1178 21.2008 15.1429 21.0413 15.2351C20.8819 15.3273 20.7656 15.4791 20.718 15.6571C20.6705 15.835 20.6956 16.0246 20.7878 16.184C20.88 16.3435 21.0318 16.4598 21.2098 16.5073ZM27.4971 23.3415L23.4077 21.5091L23.3964 21.5039C23.1841 21.4131 22.9525 21.3766 22.7226 21.3978C22.4927 21.4191 22.2717 21.4973 22.0796 21.6254C22.057 21.6403 22.0352 21.6566 22.0145 21.674L19.9016 23.4752C18.5631 22.825 17.1811 21.4535 16.531 20.1323L18.3348 17.9874C18.3521 17.9657 18.3686 17.944 18.3843 17.9205C18.5096 17.7289 18.5857 17.5093 18.6057 17.2813C18.6257 17.0532 18.589 16.8237 18.4988 16.6132V16.6028L16.6612 12.5065C16.542 12.2315 16.3371 12.0025 16.0771 11.8535C15.8171 11.7046 15.5159 11.6438 15.2185 11.6801C14.0422 11.8349 12.9625 12.4125 12.1811 13.3052C11.3996 14.1978 10.9698 15.3444 10.9719 16.5308C10.9719 23.4231 16.5796 29.0308 23.4719 29.0308C24.6583 29.0329 25.8049 28.6031 26.6975 27.8216C27.5902 27.0402 28.1678 25.9605 28.3226 24.7842C28.359 24.4869 28.2983 24.1858 28.1495 23.9258C28.0007 23.6658 27.7719 23.4608 27.4971 23.3415Z" fill="var(--icon-fg)"/></svg>