<svg width="36" height="36" viewBox="0 0 36 36" fill="none" xmlns="http://www.w3.org/2000/svg"><rect width="36" height="36" rx="18" fill="var(--icon-bg)"/><path d="M18 9.25C16.1773 9.25207 14.4298 9.97706 13.1409 11.2659C11.8521 12.5548 11.1271 14.3023 11.125 16.125C11.125 22.0078 17.375 26.4508 17.6414 26.6367C17.7465 26.7103 17.8717 26.7498 18 26.7498C18.1283 26.7498 18.2535 26.7103 18.3586 26.6367C18.625 26.4508 24.875 22.0078 24.875 16.125C24.8729 14.3023 24.1479 12.5548 22.8591 11.2659C21.5702 9.97706 19.8227 9.25207 18 9.25ZM18 13.625C18.4945 13.625 18.9778 13.7716 19.3889 14.0463C19.8 14.321 20.1205 14.7115 20.3097 15.1683C20.4989 15.6251 20.5484 16.1278 20.452 16.6127C20.3555 17.0977 20.1174 17.5431 19.7678 17.8928C19.4181 18.2424 18.9727 18.4805 18.4877 18.577C18.0028 18.6734 17.5001 18.6239 17.0433 18.4347C16.5865 18.2455 16.196 17.925 15.9213 17.5139C15.6466 17.1028 15.5 16.6195 15.5 16.125C15.5 15.462 15.7634 14.8261 16.2322 14.3572C16.7011 13.8884 17.337 13.625 18 13.625Z" fill="var(--icon-fg)"/></svg>