<svg xmlns="http://www.w3.org/2000/svg" xmlns:xlink="http://www.w3.org/1999/xlink"><symbol id="bell" viewBox="0 0 30 30"><g fill="none">
<rect width="30" height="30" rx="15" fill="var(--icon-bg)"/>
<path d="M21.8411 18.4966C21.4364 17.7994 20.8347 15.8266 20.8347 13.2501C20.8347 11.7027 20.22 10.2187 19.1259 9.12455C18.0317 8.0304 16.5477 7.41571 15.0004 7.41571C13.453 7.41571 11.969 8.0304 10.8749 9.12455C9.78071 10.2187 9.16602 11.7027 9.16602 13.2501C9.16602 15.8274 8.56363 17.7994 8.15887 18.4966C8.05551 18.6738 8.00071 18.8752 8.00001 19.0804C7.9993 19.2856 8.05271 19.4873 8.15486 19.6653C8.257 19.8432 8.40426 19.9911 8.58179 20.094C8.75932 20.1969 8.96084 20.2511 9.16602 20.2513H12.1423C12.2769 20.9099 12.6348 21.5019 13.1556 21.927C13.6764 22.3521 14.3281 22.5843 15.0004 22.5843C15.6726 22.5843 16.3243 22.3521 16.8451 21.927C17.3659 21.5019 17.7239 20.9099 17.8585 20.2513H20.8347C21.0398 20.251 21.2413 20.1966 21.4187 20.0937C21.5961 19.9908 21.7433 19.8429 21.8453 19.665C21.9474 19.487 22.0007 19.2853 22 19.0802C21.9993 18.8751 21.9445 18.6738 21.8411 18.4966ZM15.0004 21.4181C14.6385 21.418 14.2856 21.3058 13.9901 21.0968C13.6947 20.8878 13.4713 20.5924 13.3507 20.2513H16.65C16.5294 20.5924 16.306 20.8878 16.0106 21.0968C15.7152 21.3058 15.3622 21.418 15.0004 21.4181Z" fill="var(--icon-fg)"/>
</g></symbol><symbol id="call" viewBox="0 0 40 40"><g fill="none">
<rect width="40" height="40" rx="20" fill="var(--icon-bg)"/>
<path d="M21.412 12.8789C21.4356 12.7907 21.4763 12.7081 21.5318 12.6357C21.5873 12.5633 21.6566 12.5026 21.7356 12.4569C21.8146 12.4113 21.9018 12.3817 21.9923 12.3698C22.0827 12.3579 22.1746 12.3639 22.2627 12.3875C23.5501 12.7234 24.7247 13.3964 25.6655 14.3372C26.6063 15.278 27.2793 16.4526 27.6152 17.74C27.6388 17.8281 27.6448 17.92 27.6329 18.0104C27.621 18.1009 27.5914 18.1881 27.5458 18.2671C27.5001 18.3461 27.4394 18.4154 27.367 18.4709C27.2946 18.5264 27.212 18.5671 27.1238 18.5907C27.0652 18.6061 27.0048 18.6139 26.9442 18.6141C26.7912 18.6141 26.6426 18.5637 26.5213 18.4706C26.3999 18.3776 26.3127 18.2471 26.2731 18.0993C25.9993 17.0482 25.4501 16.0892 24.6822 15.3211C23.9142 14.553 22.9553 14.0036 21.9042 13.7296C21.816 13.7061 21.7333 13.6654 21.6608 13.61C21.5883 13.5545 21.5275 13.4853 21.4818 13.4062C21.436 13.3272 21.4064 13.24 21.3944 13.1495C21.3824 13.059 21.3884 12.967 21.412 12.8789ZM21.2098 16.5073C22.4068 16.8268 23.1759 17.5967 23.4954 18.7938C23.5349 18.9415 23.6221 19.072 23.7435 19.1651C23.8648 19.2582 24.0135 19.3086 24.1664 19.3085C24.227 19.3084 24.2874 19.3005 24.3461 19.2851C24.4342 19.2615 24.5168 19.2208 24.5892 19.1653C24.6616 19.1098 24.7224 19.0406 24.768 18.9616C24.8136 18.8826 24.8432 18.7953 24.8551 18.7049C24.867 18.6144 24.861 18.5225 24.8374 18.4344C24.3929 16.7712 23.2315 15.6098 21.5683 15.1653C21.3903 15.1178 21.2008 15.1429 21.0413 15.2351C20.8819 15.3273 20.7656 15.4791 20.718 15.6571C20.6705 15.835 20.6956 16.0246 20.7878 16.184C20.88 16.3435 21.0318 16.4598 21.2098 16.5073ZM27.4971 23.3415L23.4077 21.5091L23.3964 21.5039C23.1841 21.4131 22.9525 21.3766 22.7226 21.3978C22.4927 21.4191 22.2717 21.4973 22.0796 21.6254C22.057 21.6403 22.0352 21.6566 22.0145 21.674L19.9016 23.4752C18.5631 22.825 17.1811 21.4535 16.531 20.1323L18.3348 17.9874C18.3521 17.9657 18.3686 17.944 18.3843 17.9205C18.5096 17.7289 18.5857 17.5093 18.6057 17.2813C18.6257 17.0532 18.589 16.8237 18.4988 16.6132V16.6028L16.6612 12.5065C16.542 12.2315 16.3371 12.0025 16.0771 11.8535C15.8171 11.7046 15.5159 11.6438 15.2185 11.6801C14.0422 11.8349 12.9625 12.4125 12.1811 13.3052C11.3996 14.1978 10.9698 15.3444 10.9719 16.5308C10.9719 23.4231 16.5796 29.0308 23.4719 29.0308C24.6583 29.0329 25.8049 28.6031 26.6975 27.8216C27.5902 27.0402 28.1678 25.9605 28.3226 24.7842C28.359 24.4869 28.2983 24.1858 28.1495 23.9258C28.0007 23.6658 27.7719 23.4608 27.4971 23.3415Z" fill="var(--icon-fg)"/>
</g></symbol><symbol id="doc" viewBox="0 0 30 30"><g fill="none">
<rect width="30" height="30" rx="15" fill="var(--icon-bg)"/>
<path d="M19.5 7.5C20.3284 7.5 21 8.17157 21 9V21C21 21.8284 20.3284 22.5 19.5 22.5H10.5C9.67157 22.5 9 21.8284 9 21V9C9 8.17157 9.67157 7.5 10.5 7.5H19.5ZM12 17.5C11.4477 17.5 11 17.9477 11 18.5C11 19.0523 11.4477 19.5 12 19.5H13C13.5523 19.5 14 19.0523 14 18.5C14 17.9477 13.5523 17.5 13 17.5H12ZM12 14C11.4477 14 11 14.4477 11 15C11 15.5523 11.4477 16 12 16H16C16.5523 16 17 15.5523 17 15C17 14.4477 16.5523 14 16 14H12ZM12 10.5C11.4477 10.5 11 10.9477 11 11.5C11 12.0523 11.4477 12.5 12 12.5H16C16.5523 12.5 17 12.0523 17 11.5C17 10.9477 16.5523 10.5 16 10.5H12Z" fill="var(--icon-fg)"/>
</g></symbol><symbol id="event" viewBox="0 0 30 30"><g fill="none">
<rect width="30" height="30" rx="15" fill="var(--icon-bg)"/>
<path d="M18.5 6.5C19.0523 6.5 19.5 6.94772 19.5 7.5V9.5H21C21.8284 9.5 22.5 10.1716 22.5 11V20C22.5 20.8284 21.8284 21.5 21 21.5H9C8.17157 21.5 7.5 20.8284 7.5 20V11C7.5 10.1716 8.17157 9.5 9 9.5H10.5V7.5C10.5 6.94772 10.9477 6.5 11.5 6.5C12.0523 6.5 12.5 6.94772 12.5 7.5V9.5H17.5V7.5C17.5 6.94772 17.9477 6.5 18.5 6.5ZM18.0898 13.0156C17.402 12.3281 16.2972 12.3281 15.6094 13.0156L15 13.625L14.3906 13.0156C13.7028 12.3281 12.598 12.3281 11.9102 13.0156C11.2222 13.7036 11.2222 14.8091 11.9102 15.4971L12.5186 16.1064L14.8535 18.4404C14.9325 18.5194 15.0793 18.5194 15.1582 18.4404L17.4814 16.1064L18.0898 15.4971C18.7778 14.8091 18.7778 13.7036 18.0898 13.0156Z" fill="var(--icon-fg)"/>
</g></symbol><symbol id="faq" viewBox="0 0 30 30"><g fill="none">
<rect width="30" height="30" rx="15" fill="var(--icon-bg)"/>
<path d="M15 7.5C19.1421 7.5 22.5 10.8579 22.5 15C22.5 19.1421 19.1421 22.5 15 22.5H9C8.17157 22.5 7.5 21.8284 7.5 21V15C7.5 10.8579 10.8579 7.5 15 7.5ZM12 14C11.4477 14 11 14.4477 11 15C11 15.5523 11.4477 16 12 16C12.5523 16 13 15.5523 13 15C13 14.4477 12.5523 14 12 14ZM15 14C14.4477 14 14 14.4477 14 15C14 15.5523 14.4477 16 15 16C15.5523 16 16 15.5523 16 15C16 14.4477 15.5523 14 15 14ZM18 14C17.4477 14 17 14.4477 17 15C17 15.5523 17.4477 16 18 16C18.5523 16 19 15.5523 19 15C19 14.4477 18.5523 14 18 14Z" fill="var(--icon-fg)"/>
</g></symbol><symbol id="home" viewBox="0 0 30 30"><g fill="none">
<rect width="30" height="30" rx="15" fill="var(--icon-bg)"/>
<path d="M22.1999 13.7001V20.9C22.1999 21.0591 22.1367 21.2117 22.0242 21.3243C21.9116 21.4368 21.759 21.5 21.5999 21.5H8.40008C8.24095 21.5 8.08834 21.4368 7.97582 21.3243C7.8633 21.2117 7.80009 21.0591 7.80009 20.9V13.7001C7.79953 13.5423 7.83033 13.386 7.89072 13.2403C7.9511 13.0945 8.03986 12.9623 8.15183 12.8511L14.1518 6.85119C14.3768 6.62632 14.6819 6.5 15 6.5C15.3181 6.5 15.6232 6.62632 15.8482 6.85119L21.8482 12.8511C21.9601 12.9623 22.0489 13.0945 22.1093 13.2403C22.1697 13.386 22.2005 13.5423 22.1999 13.7001Z" fill="var(--icon-fg)"/>
</g></symbol><symbol id="info" viewBox="0 0 30 30"><g fill="none">
<rect width="30" height="30" rx="15" fill="var(--icon-bg)"/>
<path d="M15 7.5C19.1421 7.5 22.5 10.8579 22.5 15C22.5 19.1421 19.1421 22.5 15 22.5C10.8579 22.5 7.5 19.1421 7.5 15C7.5 10.8579 10.8579 7.5 15 7.5ZM15 17.5C14.4477 17.5 14 17.9477 14 18.5C14 19.0523 14.4477 19.5 15 19.5C15.5523 19.5 16 19.0523 16 18.5C16 17.9477 15.5523 17.5 15 17.5ZM15 10.5C14.4477 10.5 14 10.9477 14 11.5V15.5C14 16.0523 14.4477 16.5 15 16.5C15.5523 16.5 16 16.0523 16 15.5V11.5C16 10.9477 15.5523 10.5 15 10.5Z" fill="var(--icon-fg)"/>
</g></symbol><symbol id="map-pin" viewBox="0 0 36 36"><g fill="none">
<rect width="36" height="36" rx="18" fill="var(--icon-bg)"/>
<path d="M18 9.25C16.1773 9.25207 14.4298 9.97706 13.1409 11.2659C11.8521 12.5548 11.1271 14.3023 11.125 16.125C11.125 22.0078 17.375 26.4508 17.6414 26.6367C17.7465 26.7103 17.8717 26.7498 18 26.7498C18.1283 26.7498 18.2535 26.7103 18.3586 26.6367C18.625 26.4508 24.875 22.0078 24.875 16.125C24.8729 14.3023 24.1479 12.5548 22.8591 11.2659C21.5702 9.97706 19.8227 9.25207 18 9.25ZM18 13.625C18.4945 13.625 18.9778 13.7716 19.3889 14.0463C19.8 14.321 20.1205 14.7115 20.3097 15.1683C20.4989 15.6251 20.5484 16.1278 20.452 16.6127C20.3555 17.0977 20.1174 17.5431 19.7678 17.8928C19.4181 18.2424 18.9727 18.4805 18.4877 18.577C18.0028 18.6734 17.5001 18.6239 17.0433 18.4347C16.5865 18.2455 16.196 17.925 15.9213 17.5139C15.6466 17.1028 15.5 16.6195 15.5 16.125C15.5 15.462 15.7634 14.8261 16.2322 14.3572C16.7011 13.8884 17.337 13.625 18 13.625Z" fill="var(--icon-fg)"/>
</g></symbol><symbol id="menu" viewBox="0 0 40 40"><g fill="none">
<rect width="40" height="40" rx="20" fill="var(--icon-bg)"/>
<line x1="13" y1="18" x2="27" y2="18" stroke="var(--icon-fg)" stroke-width="2" stroke-linecap="round"/>
<line x1="13" y1="23" x2="27" y2="23" stroke="var(--icon-fg)" stroke-width="2" stroke-linecap="round"/>
</g></symbol><symbol id="profile" viewBox="0 0 30 30"><g fill="none">
<rect width="30" height="30" rx="15" fill="var(--icon-bg)"/>
<path d="M18.2281 15.6194C16.4453 17.4023 13.5548 17.4023 11.7719 15.6194C9.98911 13.8366 9.98911 10.9461 11.7719 9.16323C13.5548 7.3804 16.4453 7.3804 18.2281 9.16323C20.011 10.9461 20.011 13.8366 18.2281 15.6194Z" fill="var(--icon-fg)"/>
<path d="M15 16.9565C12.4787 16.9565 10.4348 18.7085 10.4348 20.8696H19.5652C19.5652 18.7085 17.5213 16.9565 15 16.9565Z" fill="var(--icon-fg)"/>
</g></symbol><symbol id="services" viewBox="0 0 30 30"><g fill="none">
<rect width="30" height="30" rx="15" fill="var(--icon-bg)"/>
<path d="M14.9996 8.76782C16.7225 7.0696 19.495 7.07704 21.2086 8.79028C22.9222 10.5038 22.9294 13.2763 21.2311 14.9993C22.9295 16.7222 22.9222 19.4956 21.2086 21.2092C19.495 22.9224 16.7224 22.929 14.9996 21.2307C13.2768 22.929 10.5042 22.9224 8.79063 21.2092C7.07727 19.4956 7.06985 16.7222 8.76817 14.9993C7.07013 13.2763 7.07719 10.5038 8.79063 8.79028C10.5041 7.07689 13.2766 7.06979 14.9996 8.76782ZM17.069 12.7844C15.8641 11.5796 13.9105 11.5796 12.7057 12.7844C11.5008 13.9893 11.5009 15.9429 12.7057 17.1477C13.9105 18.3526 15.8641 18.3525 17.069 17.1477C18.2738 15.9429 18.2738 13.9893 17.069 12.7844Z" fill="var(--icon-fg)"/>
</g></symbol></svg>