<svg width="30" height="30" viewBox="0 0 30 30" fill="none" xmlns="http://www.w3.org/2000/svg"><rect width="30" height="30" rx="15" fill="var(--icon-bg)"/><path d="M21.8411 18.4966C21.4364 17.7994 20.8347 15.8266 20.8347 13.2501C20.8347 11.7027 20.22 10.2187 19.1259 9.12455C18.0317 8.0304 16.5477 7.41571 15.0004 7.41571C13.453 7.41571 11.969 8.0304 10.8749 9.12455C9.78071 10.2187 9.16602 11.7027 9.16602 13.2501C9.16602 15.8274 8.56363 17.7994 8.15887 18.4966C8.05551 18.6738 8.00071 18.8752 8.00001 19.0804C7.9993 19.2856 8.05271 19.4873 8.15486 19.6653C8.257 19.8432 8.40426 19.9911 8.58179 20.094C8.75932 20.1969 8.96084 20.2511 9.16602 20.2513H12.1423C12.2769 20.9099 12.6348 21.5019 13.1556 21.927C13.6764 22.3521 14.3281 22.5843 15.0004 22.5843C15.6726 22.5843 16.3243 22.3521 16.8451 21.927C17.3659 21.5019 17.7239 20.9099 17.8585 20.2513H20.8347C21.0398 20.251 21.2413 20.1966 21.4187 20.0937C21.5961 19.9908 21.7433 19.8429 21.8453 19.665C21.9474 19.487 22.0007 19.2853 22 19.0802C21.9993 18.8751 21.9445 18.6738 21.8411 18.4966ZM15.0004 21.4181C14.6385 21.418 14.2856 21.3058 13.9901 21.0968C13.6947 20.8878 13.4713 20.5924 13.3507 20.2513H16.65C16.5294 20.5924 16.306 20.8878 16.0106 21.0968C15.7152 21.3058 15.3622 21.418 15.0004 21.4181Z" fill="var(--icon-fg)"/></svg>