<svg width="30" height="30" viewBox="0 0 30 30" fill="none" xmlns="http://www.w3.org/2000/svg">
<rect width="30" height="30" rx="15" fill="var(--icon-bg)"/>
<path d="M19.5 7.5C20.3284 7.5 21 8.17157 21 9V21C21 21.8284 20.3284 22.5 19.5 22.5H10.5C9.67157 22.5 9 21.8284 9 21V9C9 8.17157 9.67157 7.5 10.5 7.5H19.5ZM12 17.5C11.4477 17.5 11 17.9477 11 18.5C11 19.0523 11.4477 19.5 12 19.5H13C13.5523 19.5 14 19.0523 14 18.5C14 17.9477 13.5523 17.5 13 17.5H12ZM12 14C11.4477 14 11 14.4477 11 15C11 15.5523 11.4477 16 12 16H16C16.5523 16 17 15.5523 17 15C17 14.4477 16.5523 14 16 14H12ZM12 10.5C11.4477 10.5 11 10.9477 11 11.5C11 12.0523 11.4477 12.5 12 12.5H16C16.5523 12.5 17 12.0523 17 11.5C17 10.9477 16.5523 10.5 16 10.5H12Z" fill="var(--icon-fg)"/>
</svg>
