<svg width="30" height="30" viewBox="0 0 30 30" fill="none" xmlns="http://www.w3.org/2000/svg"><rect width="30" height="30" rx="15" fill="var(--icon-bg)"/><path d="M15 7.5C19.1421 7.5 22.5 10.8579 22.5 15C22.5 19.1421 19.1421 22.5 15 22.5H9C8.17157 22.5 7.5 21.8284 7.5 21V15C7.5 10.8579 10.8579 7.5 15 7.5ZM12 14C11.4477 14 11 14.4477 11 15C11 15.5523 11.4477 16 12 16C12.5523 16 13 15.5523 13 15C13 14.4477 12.5523 14 12 14ZM15 14C14.4477 14 14 14.4477 14 15C14 15.5523 14.4477 16 15 16C15.5523 16 16 15.5523 16 15C16 14.4477 15.5523 14 15 14ZM18 14C17.4477 14 17 14.4477 17 15C17 15.5523 17.4477 16 18 16C18.5523 16 19 15.5523 19 15C19 14.4477 18.5523 14 18 14Z" fill="var(--icon-fg)"/></svg>