<svg width="30" height="30" viewBox="0 0 30 30" fill="none" xmlns="http://www.w3.org/2000/svg"><rect width="30" height="30" rx="15" fill="var(--icon-bg)"/><path d="M22.1999 13.7001V20.9C22.1999 21.0591 22.1367 21.2117 22.0242 21.3243C21.9116 21.4368 21.759 21.5 21.5999 21.5H8.40008C8.24095 21.5 8.08834 21.4368 7.97582 21.3243C7.8633 21.2117 7.80009 21.0591 7.80009 20.9V13.7001C7.79953 13.5423 7.83033 13.386 7.89072 13.2403C7.9511 13.0945 8.03986 12.9623 8.15183 12.8511L14.1518 6.85119C14.3768 6.62632 14.6819 6.5 15 6.5C15.3181 6.5 15.6232 6.62632 15.8482 6.85119L21.8482 12.8511C21.9601 12.9623 22.0489 13.0945 22.1093 13.2403C22.1697 13.386 22.2005 13.5423 22.1999 13.7001Z" fill="var(--icon-fg)"/></svg>