<svg width="30" height="30" viewBox="0 0 30 30" fill="none" xmlns="http://www.w3.org/2000/svg">
<rect width="30" height="30" rx="15" fill="var(--icon-bg)"/>
<path d="M14.9996 8.76782C16.7225 7.0696 19.495 7.07704 21.2086 8.79028C22.9222 10.5038 22.9294 13.2763 21.2311 14.9993C22.9295 16.7222 22.9222 19.4956 21.2086 21.2092C19.495 22.9224 16.7224 22.929 14.9996 21.2307C13.2768 22.929 10.5042 22.9224 8.79063 21.2092C7.07727 19.4956 7.06985 16.7222 8.76817 14.9993C7.07013 13.2763 7.07719 10.5038 8.79063 8.79028C10.5041 7.07689 13.2766 7.06979 14.9996 8.76782ZM17.069 12.7844C15.8641 11.5796 13.9105 11.5796 12.7057 12.7844C11.5008 13.9893 11.5009 15.9429 12.7057 17.1477C13.9105 18.3526 15.8641 18.3525 17.069 17.1477C18.2738 15.9429 18.2738 13.9893 17.069 12.7844Z" fill="var(--icon-fg)"/>
</svg>
